<?xml version="1.0" encoding="utf-8"?>
<!-- Generator: Adobe Illustrator 23.1.1, SVG Export Plug-In . SVG Version: 6.00 Build 0)  -->
<svg version="1.1" id="Layer_1" xmlns="http://www.w3.org/2000/svg" x="0px" y="0px"
     viewBox="0 0 161.8 116.1" style="enable-background:new 0 0 161.8 116.1;" xml:space="preserve">
<style type="text/css">
	.st0{fill:#72CCD7;}
	.st1{fill:#222222;}
</style>
<g>
	<path class="st0" d="M20.6,65.8l-7.9-3.6c-0.3-0.1-0.5,0-0.7,0.2c-0.1,0.3,0,0.5,0.2,0.7l7.6,3.5l0.5,5.2l-2.6,2l-3.4,2.4l-4.8-1.9
		l-1.2-8.3c0-0.3-0.3-0.5-0.6-0.4c-0.3,0-0.5,0.3-0.4,0.6l1.2,8.6c0,0.2,0.1,0.3,0.3,0.4l5.3,2.1c0.1,0,0.1,0,0.2,0
		c0.1,0,0.2,0,0.3-0.1l2.9-2.1l0.7-0.5l2.8-2.2c0.1-0.1,0.2-0.3,0.2-0.4l-0.5-5.7C20.8,66,20.7,65.8,20.6,65.8z"/>
	<path class="st0" d="M33.8,91.3C33.8,91.3,33.8,91.3,33.8,91.3c-2.5,0-4.6,2.1-4.6,4.6c0,1.2,0.5,2.4,1.3,3.2
		c0.9,0.9,2,1.3,3.2,1.3c0,0,0,0,0,0c2.5,0,4.6-2.1,4.6-4.6c0-1.2-0.5-2.4-1.3-3.2C36.2,91.8,35,91.3,33.8,91.3z M33.8,99.4
		C33.8,99.4,33.8,99.4,33.8,99.4c-1,0-1.8-0.4-2.5-1c-0.7-0.7-1-1.6-1-2.5c0-2,1.6-3.6,3.6-3.6c0,0,0,0,0,0c0.9,0,1.8,0.4,2.5,1
		c0.7,0.7,1,1.6,1,2.5C37.4,97.8,35.8,99.4,33.8,99.4z"/>
	<path class="st0" d="M142.9,64.3C142.9,64.3,142.9,64.3,142.9,64.3c-1.2,0-2.4,0.5-3.2,1.3c-0.9,0.9-1.3,2-1.3,3.2
		c0,2.5,2,4.6,4.6,4.6c0,0,0,0,0,0c1.2,0,2.4-0.5,3.2-1.3c0.9-0.9,1.3-2,1.3-3.2C147.5,66.3,145.4,64.3,142.9,64.3z M142.9,72.4
		C142.9,72.4,142.9,72.4,142.9,72.4c-2,0-3.6-1.6-3.6-3.6c0-1,0.4-1.8,1-2.5c0.7-0.7,1.6-1,2.5-1c0,0,0,0,0,0c2,0,3.6,1.6,3.6,3.6
		C146.5,70.8,144.9,72.4,142.9,72.4z"/>
	<path class="st0" d="M98.1,24c0.1,0.1,0.3,0.2,0.4,0.2c0.1,0,0.2,0,0.3-0.1c0.2-0.2,0.3-0.5,0.1-0.7c-2.4-3.6-6.3-5.7-10.4-5.7
		c-4.1,0-8,2.1-10.4,5.7c-0.2,0.2-0.1,0.5,0.1,0.7c0.2,0.2,0.5,0.1,0.7-0.1c2.2-3.3,5.8-5.3,9.6-5.3C92.3,18.7,95.8,20.6,98.1,24z"
		/>
	<path class="st0" d="M108.3,32.5c-0.3-0.1-0.5,0.1-0.6,0.3c-0.1,0.3,0.1,0.5,0.3,0.6c1.2,0.3,2,1.4,2,2.7v7c0,1.2-0.8,2.3-2,2.7
		c-0.3,0.1-0.4,0.4-0.3,0.6c0.1,0.2,0.3,0.4,0.5,0.4c0,0,0.1,0,0.1,0c1.6-0.5,2.7-2,2.7-3.6v-7C111.1,34.5,109.9,33,108.3,32.5z"/>
	<path class="st0" d="M68.9,33.5c0.3-0.1,0.4-0.4,0.3-0.6c-0.1-0.3-0.4-0.4-0.6-0.3c-1.6,0.5-2.7,2-2.7,3.6v7c0,1.7,1.1,3.2,2.7,3.6
		c0,0,0.1,0,0.1,0c0.2,0,0.4-0.1,0.5-0.4c0.1-0.3-0.1-0.5-0.3-0.6c-1.2-0.3-2-1.4-2-2.7v-7C66.9,34.9,67.8,33.8,68.9,33.5z"/>
	<path class="st0" d="M73.4,7c-1.8,0-3.2,1.4-3.2,3.2s1.4,3.2,3.2,3.2s3.2-1.4,3.2-3.2S75.1,7,73.4,7z M73.4,12.4
		c-1.2,0-2.2-1-2.2-2.2c0-1.2,1-2.2,2.2-2.2s2.2,1,2.2,2.2C75.6,11.4,74.6,12.4,73.4,12.4z"/>
	<path class="st0" d="M103.7,7c-1.8,0-3.2,1.4-3.2,3.2s1.4,3.2,3.2,3.2s3.2-1.4,3.2-3.2S105.5,7,103.7,7z M103.7,12.4
		c-1.2,0-2.2-1-2.2-2.2c0-1.2,1-2.2,2.2-2.2s2.2,1,2.2,2.2C105.9,11.4,104.9,12.4,103.7,12.4z"/>
	<path class="st0" d="M79.8,34.4c-1.4,0-2.5,1.1-2.5,2.5s1.1,2.5,2.5,2.5s2.5-1.1,2.5-2.5S81.2,34.4,79.8,34.4z M79.8,38.5
		c-0.9,0-1.5-0.7-1.5-1.5c0-0.9,0.7-1.5,1.5-1.5c0.9,0,1.5,0.7,1.5,1.5C81.4,37.8,80.7,38.5,79.8,38.5z"/>
	<path class="st0" d="M97.1,34.4c-1.4,0-2.5,1.1-2.5,2.5s1.1,2.5,2.5,2.5s2.5-1.1,2.5-2.5S98.5,34.4,97.1,34.4z M97.1,38.5
		c-0.9,0-1.5-0.7-1.5-1.5c0-0.9,0.7-1.5,1.5-1.5s1.5,0.7,1.5,1.5C98.6,37.8,97.9,38.5,97.1,38.5z"/>
	<path class="st0" d="M120.9,53.1c0,0-0.1,0-0.1,0l-5.6-1.3c-0.2,0-0.3-0.2-0.4-0.3l-2.4-8.3c-0.1-0.3,0.1-0.5,0.3-0.6
		c0.3-0.1,0.5,0.1,0.6,0.3l2.3,8.1l5,1.2l3-2.8l2.3-2.4l-1.2-5l-8-2.4c-0.3-0.1-0.4-0.4-0.3-0.6c0.1-0.3,0.4-0.4,0.6-0.3l8.3,2.5
		c0.2,0.1,0.3,0.2,0.3,0.4l1.3,5.6c0,0.2,0,0.3-0.1,0.5l-2.5,2.6l-0.6,0.5l-2.6,2.5C121.1,53.1,121,53.1,120.9,53.1z"/>
</g>
<g>
	<path class="st1" d="M149.3,75.3c1.7-1.7,2.6-4,2.6-6.4c0-5-4-9-9-9c0,0,0,0,0,0c-0.9,0-1.7,0.1-2.6,0.4l-7.1-9.5c0,0,0,0,0,0
		c0,0,0,0,0,0c0,0,0,0,0,0c0,0,0,0-0.1,0l-6.1-4c-0.2-0.1-0.5-0.1-0.6,0.1l-5.9,5.6c-0.2,0.2-0.2,0.4-0.1,0.6l3.6,6.2c0,0,0,0,0,0
		c0,0,0,0,0,0c0,0,0,0,0,0c0,0,0,0,0,0l9.8,8.2c0,0,0,0,0,0c0,0.3-0.1,0.5-0.1,0.8l-11.2,7.9l0-3.2c0-0.2-0.2-0.4-0.4-0.5l-8.3-1.9
		c0,0-0.1,0-0.1,0c-1.4-5-5.9-8.7-11.4-8.7h-4.9V58h1.7c5,0,9.1-4.1,9.1-9.1v-0.1h0.1c2.6,0,4.7-2.1,4.7-4.7v-8.9
		c0-2.6-2.1-4.6-4.7-4.6h-0.1v-4.3c0-1.7-1.4-3-3-3h-3.7c-1-1.9-2.3-3.5-3.9-4.8l4.6-5.5c0.2-0.2,0.1-0.5-0.1-0.7
		c-0.2-0.2-0.5-0.1-0.7,0.1l-4.6,5.5C94.6,16,91.6,15,88.5,15c-3.1,0-6.1,1-8.5,2.7l-4.6-5.5c-0.2-0.2-0.5-0.2-0.7-0.1
		c-0.2,0.2-0.2,0.5-0.1,0.7l4.5,5.4c-1.6,1.3-3,3-4,4.9h-3.7c-1.7,0-3,1.4-3,3v4.3h-0.1c-2.6,0-4.7,2.1-4.7,4.6v8.9
		c0,2.6,2.1,4.7,4.7,4.7h0.1v0.1c0,5,4.1,9.1,9.1,9.1h1.7l-0.1,3.9h-5.1c-5.4,0-10,3.7-11.4,8.7c0,0-0.1,0-0.1,0l-8.3,1.9
		C54.1,72.6,54,72.8,54,73l0,4.7l-18.6,9.3c0,0-0.1,0.1-0.1,0.1c-0.5-0.1-1-0.1-1.5-0.1c0,0,0,0,0,0c-0.3,0-0.7,0-1,0.1L27,76.5
		c0,0,0,0,0,0c0,0,0,0,0,0c0,0,0,0,0,0c0,0,0,0,0-0.1l-5.5-4.8c-0.2-0.2-0.4-0.2-0.6,0l-6.6,4.7c-0.2,0.1-0.3,0.4-0.2,0.6l2.8,6.7
		c0,0,0,0,0,0.1c0,0,0,0,0,0c0,0,0,0,0,0c0,0,0,0,0,0l8.4,9.2c-0.3,0.9-0.5,1.9-0.5,3c0,2.4,0.9,4.7,2.6,6.4c1.7,1.7,4,2.6,6.4,2.6
		c0,0,0,0,0,0c2.4,0,4.7-0.9,6.4-2.6c0.1-0.1,0.2-0.2,0.3-0.3L54,95.2l0,4.7c0,0.2,0.2,0.4,0.4,0.5l8,1.8v1.2c0,2.1,1.7,3.8,3.8,3.8
		h44.4c2.1,0,3.8-1.7,3.8-3.8v-1.2l8-1.8c0.2-0.1,0.4-0.3,0.4-0.5l0-6.1l22.7-16.3C146.9,77.1,148.2,76.4,149.3,75.3z M143,60.9
		c4.4,0,8,3.6,8,8c0,2.1-0.8,4.1-2.4,5.7c-1.5,1.5-3.5,2.3-5.7,2.3c0,0,0,0,0,0c-2.1,0-4.1-0.8-5.7-2.4c-1.5-1.5-2.3-3.5-2.3-5.7
		c0-3.5,2.2-6.4,5.3-7.5c0.1,0,0.2,0,0.2-0.1c0,0,0,0,0,0C141.3,61,142.1,60.9,143,60.9C142.9,60.9,143,60.9,143,60.9z M126.9,47.7
		l5.2,3.5l-7.4,6.9l-3.1-5.3L126.9,47.7z M125.3,58.8l7.5-7l6.6,8.8c-2.4,1.1-4.3,3.2-5.1,5.7L125.3,58.8z M108.6,31.6
		c2,0,3.7,1.6,3.7,3.6v8.9c0,2-1.6,3.7-3.7,3.7h-0.1L108.6,31.6L108.6,31.6z M88.5,16c5,0,9.7,2.8,12.2,7.2H76.3
		C78.8,18.8,83.4,16,88.5,16z M68.4,47.7c-2,0-3.7-1.6-3.7-3.7v-8.9c0-2,1.6-3.6,3.7-3.6h0.1L68.4,47.7L68.4,47.7z M69.5,48.9v-0.6
		c0,0,0,0,0,0s0,0,0,0V31.1c0,0,0,0,0,0s0,0,0,0v-4.8c0-1.1,0.9-2,2-2h4c0,0,0,0,0,0h26c0,0,0,0,0,0c0,0,0,0,0,0h4c1.1,0,2,0.9,2,2
		V31c0,0,0,0,0,0s0,0,0,0v17.2c0,0,0,0,0,0s0,0,0,0v0.6c0,4.5-3.7,8.1-8.1,8.1h-2.2H79.8h-2.2C73.1,57,69.5,53.4,69.5,48.9z
		 M80.3,58h16.4v3.9H80.3L80.3,58z M21.1,72.6l4.7,4.1l-8.3,5.9l-2.4-5.7L21.1,72.6z M18,83.4l8.4-5.9l5.3,9.6
		c-2.6,0.6-4.8,2.4-6,4.8L18,83.4z M33.8,103.9C33.8,103.9,33.8,103.9,33.8,103.9c-2.1,0-4.2-0.8-5.7-2.3c-1.5-1.5-2.3-3.5-2.4-5.7
		c0-4.4,3.6-8,8-8c0,0,0,0,0,0c4.4,0,8,3.6,8,8c0,2.1-0.8,4.1-2.3,5.7C37.9,103.1,35.9,103.9,33.8,103.9z M41.7,100.2
		c0.7-1.3,1.1-2.8,1.1-4.3c0-3.9-2.5-7.3-6.1-8.5L54,78.8l0,15.3L41.7,100.2z M55,99.5l0-26.1l7.3-1.6l0,15.6l0,13.8L55,99.5z
		 M113.4,103.3c0,1.5-1.3,2.8-2.8,2.8H66.1c-1.5,0-2.8-1.3-2.8-2.8V73.7c0-6,4.8-10.8,10.8-10.8h5.6h17.4h5.4
		c6,0,10.8,4.8,10.8,10.8V103.3z M114.4,101.1l0-13.8l0-15.6l7.3,1.6l0,26.1L114.4,101.1z M122.7,92.6l0-15.2l11.2-7.9
		c0.1,2.2,1,4.2,2.6,5.8c1.7,1.7,4,2.6,6.4,2.6c0,0,0,0,0,0c0.1,0,0.2,0,0.3,0L122.7,92.6z"/>
	<path class="st1" d="M86.6,37c0-3.8-3.1-6.8-6.8-6.8S73,33.2,73,37s3.1,6.8,6.8,6.8S86.6,40.7,86.6,37z M74,37
		c0-3.2,2.6-5.8,5.8-5.8c3.2,0,5.8,2.6,5.8,5.8s-2.6,5.8-5.8,5.8C76.6,42.8,74,40.2,74,37z"/>
	<path class="st1" d="M97.2,43.8c3.8,0,6.8-3.1,6.8-6.8s-3.1-6.8-6.8-6.8s-6.8,3.1-6.8,6.8S93.4,43.8,97.2,43.8z M97.2,31.1
		c3.2,0,5.8,2.6,5.8,5.8s-2.6,5.8-5.8,5.8c-3.2,0-5.8-2.6-5.8-5.8S94,31.1,97.2,31.1z"/>
	<path class="st1" d="M81.9,48c-0.1-0.2-0.5-0.3-0.7-0.2c-0.2,0.1-0.3,0.5-0.2,0.7c1,1.7,3.9,2.8,7.1,2.8c3.2,0,6-1.1,7.1-2.8
		c0.1-0.2,0.1-0.5-0.2-0.7c-0.2-0.1-0.5-0.1-0.7,0.2c-0.8,1.4-3.4,2.3-6.2,2.3C85.2,50.3,82.7,49.4,81.9,48z"/>
	<path class="st1" d="M94.1,76c-0.1-0.1-0.2-0.1-0.4-0.1c-0.1,0-0.3,0.1-0.4,0.2L89,80.9l-4.7-4.6c-0.2-0.2-0.5-0.2-0.7,0l-5,5
		c-0.2,0.2-0.2,0.5,0,0.7l10.1,10.1c0.1,0.1,0.2,0.1,0.4,0.1s0.3,0,0.4-0.1l10.1-10.1c0.2-0.2,0.2-0.5,0-0.7L94.1,76z M89.1,91.2
		l-9.4-9.4l4.3-4.3l4.7,4.6c0.1,0.1,0.2,0.1,0.4,0.1c0.1,0,0.3-0.1,0.4-0.2l4.3-4.9l4.7,4.7L89.1,91.2z"/>
</g>
</svg>
